<svg id="Layer_1" data-name="Layer 1" xmlns="http://www.w3.org/2000/svg" viewBox="0 0 300 300"><defs><style>.cls-1{opacity:0.25;}.cls-2{fill:#fff;}</style></defs><g class="cls-1"><path class="cls-2" d="M180,94.56q11.43,10.17,11.43,28,0,17.64-11.34,26.91T150,158.73l-.72,13.86H127.14l-.9-30.6h8.1q15.66,0,24.12-4.14t8.46-15.12q0-7.92-4.59-12.6t-12.51-4.68q-8.28,0-12.87,4.5t-4.59,12.42H108.6a38,38,0,0,1,4.68-19.62,33.53,33.53,0,0,1,14.31-13.5q9.45-4.86,22.23-4.86Q168.54,84.39,180,94.56Zm-53.1,116.82a14.78,14.78,0,0,1,0-21.06,15.59,15.59,0,0,1,11.25-4.23,15,15,0,0,1,11,4.23,15,15,0,0,1,0,21.06,15,15,0,0,1-11,4.23A15.59,15.59,0,0,1,126.87,211.38Z"/></g></svg>